<?xml version="1.0" encoding="utf-8"?>
<!-- Generator: Adobe Illustrator 28.3.0, SVG Export Plug-In . SVG Version: 6.00 Build 0)  -->
<svg version="1.1" id="Calque_1" xmlns="http://www.w3.org/2000/svg" xmlns:xlink="http://www.w3.org/1999/xlink" x="0px" y="0px"
	 viewBox="0 0 69.8 60" style="enable-background:new 0 0 69.8 60;" xml:space="preserve">
<style type="text/css">
	.st0{fill-rule:evenodd;clip-rule:evenodd;fill:url(#Fill-14_00000001641157679687696310000003939443417201717131_);}
	.st1{fill-rule:evenodd;clip-rule:evenodd;fill:url(#Fill-16_00000173865389574319859260000011742476274434057650_);}
	.st2{fill-rule:evenodd;clip-rule:evenodd;fill:url(#Fill-19_00000137850027379157225840000001995463400554449853_);}
</style>
<g id="Mockup">
	<g id="Desktop-HD" transform="translate(-60.000000, -30.000000)">
		<g id="Group" transform="translate(60.000000, 30.000000)">
			
				<linearGradient id="Fill-14_00000056386905928468263650000013897267449490430872_" gradientUnits="userSpaceOnUse" x1="-205.0546" y1="442.3108" x2="-205.0546" y2="441.3108" gradientTransform="matrix(22.7625 0 0 -45.576 4695.9341 20172.6016)">
				<stop  offset="0" style="stop-color:#E2CA40"/>
				<stop  offset="1" style="stop-color:#FFED65"/>
			</linearGradient>
			
				<path id="Fill-14" style="fill-rule:evenodd;clip-rule:evenodd;fill:url(#Fill-14_00000056386905928468263650000013897267449490430872_);" d="
				M22.8,13.8l-4.3,7.4c-2,3.6-2,7.9,0,11.5l15.4,26.7l4.3-7.4c2-3.6,2-7.9,0-11.5L22.8,13.8z"/>
			
				<linearGradient id="Fill-16_00000072978184596095951310000011270567297960145085_" gradientUnits="userSpaceOnUse" x1="-209.224" y1="420.7267" x2="-210.224" y2="420.7267" gradientTransform="matrix(45.0167 0 0 -13.1813 9463.583 5552.9956)">
				<stop  offset="0" style="stop-color:#EF6F6C"/>
				<stop  offset="1" style="stop-color:#F07C79"/>
			</linearGradient>
			
				<path id="Fill-16" style="fill-rule:evenodd;clip-rule:evenodd;fill:url(#Fill-16_00000072978184596095951310000011270567297960145085_);" d="
				M4.3,8.1L0,0.7h30.8c4.1,0,7.9,2.2,9.9,5.7l4.3,7.4H14.2C10.1,13.8,6.3,11.7,4.3,8.1"/>
			
				<linearGradient id="Fill-19_00000090291978562104413000000007586468842766941330_" gradientUnits="userSpaceOnUse" x1="-208.424" y1="437.8892" x2="-207.9161" y2="438.7252" gradientTransform="matrix(33.924 0 0 -32.3947 7112.5845 14216.0918)">
				<stop  offset="0" style="stop-color:#28AFB0"/>
				<stop  offset="1" style="stop-color:#44E0DC"/>
			</linearGradient>
			
				<path id="Fill-19" style="fill-rule:evenodd;clip-rule:evenodd;fill:url(#Fill-19_00000090291978562104413000000007586468842766941330_);" d="
				M67.8,0.7L52.5,27.3c-2.1,3.6-5.8,5.7-9.9,5.7h-8.6L49.3,6.4c2-3.6,5.8-5.7,9.9-5.7H67.8z"/>
		</g>
	</g>
</g>
</svg>
